 <svg version="1.0" xmlns="http://www.w3.org/2000/svg" width="700.000000pt" height="633.000000pt" viewBox="0 0 700.000000 633.000000" preserveAspectRatio="xMidYMid meet">
<metadata>
Created by potrace 1.12, written by Peter Selinger 2001-2015
</metadata>
<g transform="translate(0.000000,633.000000) scale(0.100000,-0.100000)" fill="#000000" stroke="none">
<path d="M5325 6214 c-55 -14 -137 -45 -166 -64 -19 -11 -41 -23 -49 -27 -51
-22 -268 -235 -1460 -1427 l-1325 -1326 240 -240 c132 -132 247 -240 256 -240
24 0 129 -55 186 -98 168 -125 335 -275 640 -575 122 -121 225 -217 230 -215
12 6 3053 3052 3053 3059 0 8 -516 519 -613 607 -76 70 -224 197 -322 278 -88
72 -271 192 -352 230 -73 34 -85 37 -188 40 -60 2 -119 1 -130 -2z"></path>
<path d="M1235 2284 c-1128 -1131 -1087 -1085 -1088 -1204 -1 -122 101 -245
277 -335 54 -28 204 -28 256 -1 53 28 70 46 70 75 0 79 51 151 138 195 26 13
90 38 142 57 211 74 358 168 526 334 154 153 332 390 421 562 18 35 46 87 63
118 16 30 44 81 61 113 18 31 39 70 48 87 22 41 81 126 111 161 61 71 125 91
186 59 37 -19 105 -19 152 0 119 50 208 237 158 333 -18 33 -468 483 -482 480
-5 -1 -472 -466 -1039 -1034z m1094 759 c30 -38 35 -66 17 -102 -40 -76 -122
-68 -165 16 -9 18 -8 30 3 57 17 41 39 55 88 56 28 0 41 -6 57 -27z m-1857
-1853 c27 -27 30 -36 25 -71 -8 -57 -31 -79 -83 -79 -35 0 -47 5 -69 32 -22
26 -26 39 -21 67 12 78 93 105 148 51z"></path>
</g>
</svg>