 <svg version="1.0" xmlns="http://www.w3.org/2000/svg" width="700.000000pt" height="436.000000pt" viewBox="0 0 700.000000 436.000000" preserveAspectRatio="xMidYMid meet">
<metadata>
Created by potrace 1.12, written by Peter Selinger 2001-2015
</metadata>
<g transform="translate(0.000000,436.000000) scale(0.100000,-0.100000)" fill="#000000" stroke="none">
<path d="M1309 4327 c-45 -27 -267 -186 -699 -500 -104 -76 -240 -171 -259
-182 -9 -5 -35 -24 -56 -41 -55 -43 -249 -180 -274 -194 -12 -6 -21 -15 -21
-20 0 -19 185 -287 302 -438 347 -446 802 -957 1263 -1418 247 -247 464 -445
488 -443 7 0 38 33 69 72 31 40 90 113 130 163 40 50 126 158 191 241 64 82
148 183 186 224 l68 74 73 0 72 1 111 124 c60 69 137 154 169 190 l59 65 -113
104 c-389 359 -692 734 -1310 1621 -106 151 -208 294 -227 318 -66 82 -132 93
-222 39z m158 -8 c22 -14 88 -99 195 -252 89 -128 217 -311 286 -407 131 -184
149 -209 119 -175 -32 35 -44 52 -130 167 -124 169 -173 236 -302 423 -132
191 -155 219 -196 235 -42 18 -87 5 -162 -45 -68 -45 -127 -79 -127 -71 0 2
47 36 105 75 118 79 152 87 212 50z m-21 -434 c36 -24 64 -74 64 -118 0 -44
-12 -70 -48 -109 -27 -29 -24 -35 9 -18 32 18 21 2 -18 -25 -77 -51 -197 -24
-238 55 -20 38 -11 38 22 0 34 -41 74 -60 120 -59 l38 1 -45 9 c-55 11 -87 34
-111 79 -43 79 -6 174 77 200 39 12 99 5 130 -15z m-1090 -273 c-7 -20 155
-263 268 -402 97 -121 471 -574 586 -710 58 -69 125 -150 149 -180 79 -101
-101 91 -243 259 -294 346 -534 648 -673 848 -37 53 -83 113 -102 132 l-33 35
22 18 c28 23 33 23 26 0z m1829 -2135 c44 -35 54 -39 92 -34 l43 4 -20 -26
c-10 -14 -30 -39 -44 -56 l-25 -30 -1 29 c0 24 -25 55 -140 171 -77 77 -140
144 -140 149 0 4 42 -31 93 -80 50 -48 114 -105 142 -127z"></path>
<path d="M1400 3620 c0 -5 4 -10 9 -10 6 0 13 5 16 10 3 6 -1 10 -9 10 -9 0
-16 -4 -16 -10z"></path>
<path d="M5514 4332 c-25 -19 -95 -109 -198 -258 -716 -1030 -1029 -1415
-1450 -1781 l-48 -42 62 -73 c35 -40 113 -128 173 -194 l110 -122 56 5 c42 3
64 0 87 -14 35 -20 130 -130 310 -360 244 -310 319 -402 334 -402 8 -1 71 50
140 111 588 527 1487 1541 1838 2071 40 60 72 111 72 115 0 4 -10 13 -22 21
-13 8 -85 59 -161 115 -77 55 -146 106 -155 111 -20 13 -470 335 -623 446 -64
46 -161 116 -215 156 -187 135 -234 150 -310 95z m222 -57 c46 -31 87 -61 90
-67 9 -14 -28 7 -110 61 -81 54 -134 61 -183 25 -15 -11 -113 -142 -218 -291
-206 -293 -349 -488 -367 -499 -15 -10 -8 2 82 126 42 58 150 211 240 340 90
129 179 255 197 280 82 110 136 115 269 25z m-42 -379 c83 -35 109 -149 50
-223 -17 -21 -41 -39 -53 -41 -20 -3 -31 -22 -12 -22 18 0 77 47 98 79 13 19
23 27 23 19 0 -8 -10 -30 -22 -48 -52 -75 -162 -94 -236 -40 -55 40 -53 47 4
15 26 -14 49 -23 52 -20 3 3 3 6 1 8 -2 1 -17 9 -34 18 -101 56 -99 196 5 250
41 23 79 24 124 5z m983 -289 c10 -7 4 -19 -22 -51 -19 -22 -65 -84 -102 -136
-200 -283 -677 -868 -882 -1080 l-73 -75 49 61 c26 33 113 139 193 235 162
193 505 609 561 679 20 25 84 114 143 199 78 113 105 160 100 174 -6 20 2 18
33 -6z m-1760 -2065 c-121 -122 -147 -154 -147 -178 l-1 -29 -25 30 c-14 17
-34 42 -44 56 l-20 26 43 -4 c38 -5 48 -1 92 35 28 22 91 78 140 125 146 139
121 99 -38 -61z"></path>
<path d="M5620 3610 c0 -5 4 -10 9 -10 6 0 13 5 16 10 3 6 -1 10 -9 10 -9 0
-16 -4 -16 -10z"></path>
<path d="M3030 2036 c-90 -102 -166 -189 -168 -195 -2 -6 41 -58 95 -117 54
-58 98 -110 98 -117 0 -14 -165 -150 -868 -716 -295 -238 -335 -284 -358 -408
-22 -119 32 -269 139 -384 119 -129 224 -131 298 -6 43 73 103 154 205 272
158 184 257 265 539 439 52 32 124 77 160 99 70 44 193 139 277 213 l53 46 86
-73 c119 -103 164 -135 374 -266 270 -169 336 -216 428 -307 120 -116 279
-311 343 -418 43 -74 77 -98 134 -98 56 0 98 25 167 99 173 184 191 409 46
567 -23 26 -191 166 -373 312 -181 146 -412 333 -513 416 -101 83 -199 162
-218 176 -18 14 -33 30 -31 37 1 7 46 59 100 117 53 57 97 108 97 111 0 15
-330 385 -343 385 -5 0 -71 -54 -147 -120 -76 -66 -144 -120 -150 -120 -7 0
-52 35 -100 78 -151 131 -188 162 -197 162 -4 0 -82 -83 -173 -184z m636 -257
c323 -270 674 -558 1088 -889 149 -119 284 -231 299 -250 15 -18 40 -56 55
-84 23 -44 27 -63 27 -136 0 -73 -4 -94 -29 -148 -35 -76 -44 -77 -14 -1 30
74 30 205 1 269 -34 75 -92 129 -376 356 -633 506 -1205 981 -1292 1075 l-40
42 36 -29 c20 -16 130 -108 245 -205z m-91 191 c-16 -16 -31 -27 -34 -24 -5 4
48 53 58 54 3 0 -8 -13 -24 -30z m-258 -85 c34 -24 47 -76 29 -118 -14 -34
-58 -67 -90 -67 -83 0 -127 111 -67 171 34 33 91 40 128 14z m494 -14 c20 -20
29 -40 29 -61 0 -35 -26 -93 -40 -88 -26 9 -140 114 -140 129 0 26 39 49 83
49 29 0 46 -7 68 -29z m-712 -308 c0 -9 -169 -147 -720 -589 -206 -166 -394
-323 -417 -350 -84 -94 -102 -232 -48 -365 13 -32 22 -59 19 -59 -2 0 -18 30
-36 68 -28 59 -32 77 -32 152 0 92 15 134 78 214 17 21 150 134 296 251 146
117 397 319 556 449 160 130 293 236 298 236 4 0 7 -3 6 -7z m-42 -365 c45
-42 36 -130 -16 -158 -66 -35 -151 14 -151 87 1 89 102 132 167 71z m1003 17
c37 -19 50 -43 50 -90 0 -71 -86 -119 -151 -85 -51 28 -61 117 -16 157 39 36
73 41 117 18z m-1784 -659 c37 -37 43 -70 20 -115 -46 -88 -186 -54 -186 46 1
93 100 135 166 69z m2563 20 c56 -30 67 -106 22 -155 -82 -88 -224 29 -150
123 36 45 80 56 128 32z"></path>
</g>
</svg>